<?xml version="1.0" encoding="UTF-8" standalone="no"?>
<!-- Created with Inkscape (http://www.inkscape.org/) -->

<svg
   width="37.029518mm"
   height="74.899582mm"
   viewBox="0 0 37.029518 74.899582"
   version="1.1"
   id="svg1"
   xml:space="preserve"
   inkscape:version="1.3 (0e150ed6c4, 2023-07-21)"
   sodipodi:docname="favicon.svg"
   xmlns:inkscape="http://www.inkscape.org/namespaces/inkscape"
   xmlns:sodipodi="http://sodipodi.sourceforge.net/DTD/sodipodi-0.dtd"
   xmlns="http://www.w3.org/2000/svg"
   xmlns:svg="http://www.w3.org/2000/svg"><title>Special Ingredient Bass</title><sodipodi:namedview
     id="namedview1"
     pagecolor="#505050"
     bordercolor="#eeeeee"
     borderopacity="1"
     inkscape:showpageshadow="0"
     inkscape:pageopacity="0"
     inkscape:pagecheckerboard="0"
     inkscape:deskcolor="#505050"
     inkscape:document-units="mm"
     inkscape:zoom="0.71185515"
     inkscape:cx="-54.084037"
     inkscape:cy="-4.9167306"
     inkscape:window-width="1920"
     inkscape:window-height="1017"
     inkscape:window-x="1912"
     inkscape:window-y="-8"
     inkscape:window-maximized="1"
     inkscape:current-layer="g7" /><defs
     id="defs1" /><g
     inkscape:label="Layer 1"
     inkscape:groupmode="layer"
     id="layer1"
     transform="translate(-117.64686,-49.299719)"><g
       id="g7"><path
         style="display:inline;fill:#580d41"
         d="m 136.11886,121.55628 c -3.13601,-2.87358 -5.61059,-5.06334 -13.51672,-11.96096 -5.45558,-4.75965 -5.06461,-3.70724 -4.736,-12.748304 0.30293,-8.33435 -0.18838,-7.185313 4.01239,-9.383834 4.35137,-2.277346 4.34412,-1.953237 0.11854,-5.298297 -2.01559,-1.595579 -4.21328,-3.057611 -4.21829,-3.374372 -0.0926,-5.847343 -0.13192,-11.713085 -0.13192,-17.576699 11.78452,-10.161079 12.29599,-10.274161 13.71109,-11.61276 0.38539,-0.364559 0.61321,-0.522539 1.74033,0.25712 1.12711,0.779658 3.15351,2.496955 7.13606,5.88295 2.74599,2.334658 5.50409,4.661544 6.12912,5.170867 2.53906,2.685233 4.48048,5.897874 6.53782,8.956629 l -0.24145,5.944827 c -0.28561,7.032085 0.1079,6.303592 -4.46037,8.257324 -1.9608,0.838588 -3.5651,1.672067 -3.5651,1.852175 0,0.69522 2.25062,2.304467 5.50048,3.932976 4.34503,2.177295 3.9448,1.316838 4.13573,8.891486 0.0899,3.565262 0.22742,7.200942 0.30567,8.079282 0.23832,2.67519 0.78578,1.91722 -8.44938,11.69832 -6.70422,7.10054 -5.84959,6.84168 -10.008,3.03127 z"
         id="path7"
         sodipodi:nodetypes="sssssscscsscssssssss" /><path
         style="display:inline;fill:#e7732e"
         d="m 132.35936,51.761182 c -4.44303,3.059111 -8.46287,6.737606 -12.67468,10.119279 0.0207,5.415077 -0.31309,10.826571 -0.11003,16.237251 l 6.7753,4.996078 c 8.68844,6.949351 7.88098,5.32938 7.57266,15.196488 -0.20705,6.627992 -0.17258,6.295172 -1.37717,6.888982 -0.44312,-0.52888 -0.47853,-0.84046 -0.47853,-7.659994 v -7.364408 c 0,0 -1.15083,-2.016276 -3.464,-3.003058 -1.43807,-0.613471 -4.59808,0.706269 -8.22572,3.461944 -0.38708,0.29404 -0.95799,13.042366 -0.65474,13.581596 0.0955,0.16984 3.0864,2.87864 6.64714,6.01928 h 5.1e-4 c 7.72538,6.81393 5.67288,6.86205 13.13254,-0.30541 l 6.26111,-6.01617 c -0.10591,-7.247628 0.21087,-4.868396 0.0305,-9.531204 -0.21414,-5.53788 0.0188,-4.335104 -7.66155,-11.256677 -3.57081,-3.218086 -6.58432,-6.109543 -6.69675,-6.425448 -0.36081,-1.013915 0.0621,-14.336148 0.47078,-14.828552 0.70233,-0.846249 0.90223,-0.887603 1.36281,0.230681 0.27831,1.349579 0.20148,1.86694 9.3e-4,13.860965 l 1.64693,1.469161 c 2.05541,1.833598 1.72231,1.857049 6.19445,-0.438216 4.44141,-2.279491 4.04282,-1.422275 4.04782,-8.704378 l 0.004,-5.720065 c -4.34742,-3.495559 -8.33307,-7.466421 -12.80439,-10.808125 z"
         id="path25"
         inkscape:label="path25"
         sodipodi:nodetypes="ccccccscsssccccccccccsscccc" /></g></g></svg>
